<?xml version="1.0" encoding="UTF-8" standalone="no"?>
<!DOCTYPE svg PUBLIC "-//W3C//DTD SVG 1.1//EN" "http://www.w3.org/Graphics/SVG/1.1/DTD/svg11.dtd">
<svg xmlns="http://www.w3.org/2000/svg" version="1.1" viewBox="0 0 362 362">
<g stroke-width="2.0" fill="none" stroke-linecap="butt">
<path stroke="#84a7e0" vector-effect="non-scaling-stroke" d="
  M 229.31 0.00
  Q 217.18 0.41 205.05 0.50
  C 204.83 0.50 204.64 0.59 204.55 0.73
  Q 204.36 1.05 205.00 1.05
  Q 209.47 1.00 206.71 2.30
  C 206.41 2.44 206.20 2.70 206.17 2.99
  Q 205.97 4.88 207.94 5.07
  Q 210.26 5.29 207.27 6.35
  Q 206.45 6.64 206.66 5.80
  Q 206.96 4.63 206.02 5.59
  C 205.92 5.70 205.93 5.88 206.05 5.99
  Q 206.40 6.30 205.89 6.40
  C 205.73 6.43 205.52 6.37 205.32 6.22
  Q 204.81 5.86 204.46 6.50"
/>
<path stroke="#bfd1ef" vector-effect="non-scaling-stroke" d="
  M 204.46 6.50
  Q 169.81 2.38 136.43 11.04
  Q 127.00 13.49 117.47 17.38
  Q 45.57 46.77 16.80 118.94
  Q 13.01 128.47 10.64 137.95
  Q 0.75 177.51 8.78 217.50
  Q 10.74 227.27 13.86 236.83
  Q 21.11 259.08 33.06 277.44
  Q 65.78 327.66 122.10 348.45
  Q 130.98 351.73 141.27 354.10
  Q 153.72 356.96 163.75 358.00
  Q 205.37 362.33 244.94 347.24
  Q 254.13 343.74 263.15 338.99
  Q 327.17 305.26 350.79 235.25"
/>
<path stroke="#84a7e0" vector-effect="non-scaling-stroke" d="
  M 350.79 235.25
  Q 351.42 235.63 351.69 234.69
  Q 351.94 233.80 353.62 229.77
  C 353.70 229.58 353.97 229.55 354.10 229.72
  Q 354.94 230.75 356.27 231.14
  C 356.55 231.22 356.77 231.45 356.84 231.74
  Q 357.36 233.89 359.50 234.36
  Q 359.60 234.38 360.35 234.29
  Q 360.59 234.26 360.81 234.38
  C 361.01 234.48 361.24 234.38 361.24 234.19
  L 361.15 231.55
  C 361.13 231.16 361.25 230.83 361.44 230.77
  Q 361.69 230.68 362.00 230.81"
/>
<path stroke="#c4d5f0" vector-effect="non-scaling-stroke" d="
  M 350.79 235.25
  Q 365.43 187.39 353.65 138.71
  Q 351.74 130.81 347.69 120.31
  Q 328.79 71.37 288.13 40.58
  Q 280.38 34.71 271.49 29.51
  Q 252.55 18.41 233.81 12.69
  Q 222.92 9.36 204.46 6.50"
/>
<path stroke="#c1d2ef" vector-effect="non-scaling-stroke" d="
  M 248.81 40.94
  Q 221.12 27.77 191.24 25.83
  Q 181.53 25.20 171.26 26.03
  Q 118.78 30.26 79.31 64.43
  Q 71.69 71.03 65.16 78.54
  Q 36.52 111.46 28.74 154.61
  Q 26.96 164.48 26.57 174.47
  Q 24.64 223.03 50.63 264.65
  Q 66.04 289.32 89.54 306.47
  Q 133.20 338.33 186.76 336.82
  Q 196.70 336.53 206.65 334.86
  Q 260.83 325.73 297.64 285.50
  Q 304.33 278.19 309.98 269.78
  Q 316.51 260.06 321.79 249.60
  Q 326.34 240.59 329.44 231.15
  Q 346.67 178.64 327.64 126.84
  Q 324.09 117.19 319.54 108.59
  Q 307.66 86.11 289.07 68.43
  Q 271.50 51.73 248.81 40.94"
/>
<path stroke="#c1d2ef" vector-effect="non-scaling-stroke" d="
  M 237.06 41.44
  Q 227.54 37.66 214.25 34.60
  Q 209.74 33.56 204.16 32.98
  Q 199.07 32.44 193.99 31.88
  Q 180.44 30.38 166.92 32.06
  Q 163.54 32.48 160.15 32.87
  Q 156.17 33.32 153.40 33.86
  Q 115.35 41.18 85.35 65.83
  Q 71.79 76.98 60.69 92.44
  Q 39.91 121.36 33.58 155.43
  Q 31.78 165.13 31.41 175.30
  Q 29.73 221.99 54.06 261.35
  Q 59.39 269.97 65.70 277.58
  Q 88.13 304.65 120.71 319.26
  Q 134.92 325.64 154.50 329.50
  Q 176.93 333.92 196.48 331.60
  Q 211.69 329.80 224.75 326.00
  Q 250.07 318.64 271.45 302.97
  Q 279.43 297.12 286.69 290.07
  Q 321.67 256.13 330.35 206.97
  Q 336.71 170.96 325.55 136.23
  Q 316.87 109.23 299.09 87.16
  Q 274.11 56.15 237.06 41.44"
/>
<path stroke="#b8cced" vector-effect="non-scaling-stroke" d="
  M 89.78 170.23
  Q 85.79 166.79 80.56 166.01
  C 80.28 165.97 80.02 165.77 79.86 165.49
  Q 79.32 164.51 78.13 164.62
  Q 76.93 164.74 76.86 164.74
  Q 61.46 164.48 46.06 164.44
  C 45.86 164.44 45.69 164.61 45.69 164.81
  L 45.81 198.19
  C 45.81 198.47 46.04 198.70 46.32 198.71
  Q 62.63 199.43 78.95 198.71
  C 79.24 198.70 79.53 198.55 79.75 198.31
  Q 80.06 197.96 80.42 197.67
  Q 80.89 197.28 81.69 197.12
  Q 92.27 194.95 94.59 185.38
  Q 95.64 181.04 94.48 177.28
  Q 93.22 173.19 89.78 170.23"
/>
<path stroke="#b8cced" vector-effect="non-scaling-stroke" d="
  M 230.81 170.31
  C 230.81 168.59 229.41 167.19 227.69 167.19
  C 225.97 167.19 224.57 168.59 224.57 170.31
  C 224.57 172.03 225.97 173.43 227.69 173.43
  C 229.41 173.43 230.81 172.03 230.81 170.31"
/>
<path stroke="#b8cced" vector-effect="non-scaling-stroke" d="
  M 265.20 170.29
  C 265.20 168.58 263.81 167.19 262.10 167.19
  C 260.39 167.19 259.00 168.58 259.00 170.29
  C 259.00 172.00 260.39 173.39 262.10 173.39
  C 263.81 173.39 265.20 172.00 265.20 170.29"
/>
<path stroke="#b8cced" vector-effect="non-scaling-stroke" d="
  M 171.25 168.06
  C 171.25 167.89 171.11 167.75 170.94 167.75
  L 165.56 167.75
  C 165.39 167.75 165.25 167.89 165.25 168.06
  L 165.25 196.94
  C 165.25 197.11 165.39 197.25 165.56 197.25
  L 170.94 197.25
  C 171.11 197.25 171.25 197.11 171.25 196.94
  L 171.25 168.06"
/>
<path stroke="#b8cced" vector-effect="non-scaling-stroke" d="
  M 182.81 183.94
  L 182.75 168.41
  C 182.75 168.05 182.45 167.75 182.09 167.75
  L 177.88 167.75
  C 177.39 167.75 177.00 168.14 177.00 168.62
  L 177.06 196.70
  C 177.06 196.98 177.28 197.21 177.56 197.21
  L 181.88 197.25
  C 182.48 197.26 182.93 196.70 182.82 196.10
  Q 182.14 192.50 184.59 190.77
  C 184.81 190.61 185.14 190.66 185.33 190.89
  L 190.25 196.81
  C 190.46 197.06 190.75 197.20 191.05 197.21
  L 196.93 197.24
  Q 197.47 197.25 197.14 196.82
  L 188.83 186.18
  C 188.65 185.95 188.66 185.63 188.86 185.40
  L 196.69 176.39
  Q 197.03 176.00 196.50 175.91
  Q 193.39 175.42 190.30 175.97
  C 190.02 176.02 189.75 176.20 189.53 176.46
  L 183.16 184.08
  Q 182.81 184.50 182.81 183.94"
/>
<path stroke="#b8cced" vector-effect="non-scaling-stroke" d="
  M 128.55 174.93
  L 128.45 170.07
  C 128.44 169.78 128.21 169.55 127.93 169.54
  L 123.26 169.50
  C 122.98 169.50 122.75 169.74 122.75 170.03
  Q 122.75 172.75 122.78 174.75
  Q 122.80 175.90 121.17 175.40
  C 120.59 175.22 120.00 175.65 120.00 176.26
  Q 120.00 177.75 120.00 179.43
  Q 120.00 180.19 120.39 180.41
  Q 120.86 180.66 121.68 180.34
  C 122.19 180.14 122.75 180.52 122.75 181.07
  Q 122.75 186.63 122.79 192.50
  Q 122.81 196.69 126.50 197.50
  Q 128.60 197.96 131.94 197.73
  C 132.26 197.71 132.53 197.51 132.63 197.22
  Q 132.81 196.65 132.82 196.06
  Q 132.83 195.09 132.88 194.43
  Q 133.06 192.10 130.25 192.75
  Q 128.48 193.16 128.50 190.00
  L 128.55 181.06
  C 128.55 180.80 128.77 180.59 129.06 180.57
  L 132.06 180.38
  C 132.39 180.36 132.65 180.11 132.65 179.82
  L 132.66 176.24
  C 132.66 175.83 132.28 175.50 131.81 175.49
  L 129.05 175.47
  C 128.78 175.47 128.56 175.23 128.55 174.93"
/>
<path stroke="#b8cced" vector-effect="non-scaling-stroke" d="
  M 153.54 195.70
  Q 153.91 195.91 153.89 196.44
  C 153.88 196.74 154.06 197.00 154.30 197.05
  Q 156.65 197.56 159.01 197.11
  C 159.30 197.05 159.50 196.80 159.50 196.50
  L 159.50 176.27
  C 159.50 175.98 159.27 175.75 158.98 175.75
  Q 156.47 175.75 154.58 175.75
  Q 154.18 175.75 153.96 175.93
  Q 153.64 176.21 153.73 176.60
  C 153.82 177.02 153.81 177.37 153.69 177.50
  Q 153.33 177.93 152.84 177.35
  Q 152.46 176.88 152.12 176.71
  Q 145.98 173.68 140.99 177.17
  Q 138.59 178.85 137.43 181.59
  Q 136.23 184.39 136.44 187.40
  Q 136.74 191.73 139.76 194.79
  Q 144.50 199.58 152.19 196.44
  Q 152.49 196.31 152.77 195.97
  C 153.01 195.69 153.33 195.58 153.54 195.70"
/>
<path stroke="#b8cced" vector-effect="non-scaling-stroke" d="
  M 241.56 182.06
  Q 240.97 180.53 243.50 180.50
  Q 246.98 180.46 250.06 182.02
  C 250.35 182.16 250.68 182.11 250.84 181.89
  L 253.16 178.83
  C 253.33 178.61 253.26 178.28 253.01 178.11
  Q 247.01 174.11 240.47 176.11
  Q 238.15 176.82 237.01 178.13
  Q 235.53 179.84 235.75 182.25
  Q 236.22 187.35 241.47 188.41
  Q 244.02 188.92 246.59 189.38
  Q 247.41 189.53 247.80 189.86
  Q 248.53 190.46 248.16 191.27
  Q 247.86 191.92 246.90 192.17
  Q 242.75 193.23 239.16 190.79
  C 238.90 190.62 238.58 190.61 238.35 190.78
  Q 236.60 192.06 235.70 194.03
  C 235.58 194.30 235.67 194.63 235.91 194.80
  Q 241.61 198.78 248.57 197.34
  Q 252.01 196.64 253.31 194.06
  Q 255.56 189.63 252.54 186.69
  Q 251.28 185.47 248.47 184.63
  Q 244.79 183.54 243.94 183.56
  Q 242.16 183.61 241.56 182.06"
/>
<path stroke="#b8cced" vector-effect="non-scaling-stroke" d="
  M 293.1586 186.3878
  C 293.06 180.25 287.79 175.35 281.3853 175.4514
  C 274.98 175.55 269.86 180.61 269.9614 186.7522
  C 270.06 192.89 275.33 197.79 281.7347 197.6886
  C 288.14 197.59 293.26 192.53 293.1586 186.3878"
/>
<path stroke="#b8cced" vector-effect="non-scaling-stroke" d="
  M 304.16 176.80
  L 304.01 176.41
  C 303.88 176.08 303.60 175.86 303.32 175.86
  L 298.69 175.86
  C 298.40 175.86 298.17 176.12 298.17 176.43
  L 298.16 196.56
  C 298.16 196.87 298.39 197.13 298.67 197.13
  L 303.15 197.19
  C 303.62 197.20 304.00 196.79 304.00 196.28
  Q 304.00 190.50 304.11 184.50
  Q 304.18 180.65 307.75 180.25
  Q 310.16 179.98 311.31 181.67
  Q 311.98 182.66 312.10 184.97
  Q 312.39 190.46 312.23 196.55
  C 312.22 196.93 312.52 197.25 312.89 197.24
  L 317.68 197.21
  C 317.97 197.20 318.20 196.98 318.21 196.69
  Q 318.52 190.16 317.97 183.66
  Q 317.69 180.33 316.15 178.41
  Q 311.90 173.10 304.68 176.99
  C 304.49 177.09 304.25 177.00 304.16 176.80"
/>
<path stroke="#b8cced" vector-effect="non-scaling-stroke" d="
  M 209.39 185.54
  L 204.97 176.21
  C 204.84 175.93 204.54 175.75 204.22 175.75
  L 199.60 175.75
  C 199.03 175.75 198.66 176.35 198.92 176.85
  L 209.52 197.32
  Q 209.75 197.76 210.01 197.31
  Q 215.96 187.12 221.04 176.45
  C 221.16 176.20 221.01 175.91 220.77 175.91
  L 215.89 175.88
  C 215.28 175.87 214.68 176.30 214.36 176.96
  L 210.18 185.56
  Q 209.79 186.37 209.39 185.54"
/>
<path stroke="#b8cced" vector-effect="non-scaling-stroke" d="
  M 230.75 176.06
  C 230.75 175.89 230.61 175.75 230.44 175.75
  L 225.06 175.75
  C 224.89 175.75 224.75 175.89 224.75 176.06
  L 224.75 196.94
  C 224.75 197.11 224.89 197.25 225.06 197.25
  L 230.44 197.25
  C 230.61 197.25 230.75 197.11 230.75 196.94
  L 230.75 176.06"
/>
<path stroke="#b8cced" vector-effect="non-scaling-stroke" d="
  M 265.01 176.27
  C 265.01 175.98 264.78 175.75 264.49 175.75
  L 259.77 175.75
  C 259.48 175.75 259.25 175.98 259.25 176.27
  L 259.25 196.73
  C 259.25 197.02 259.48 197.25 259.77 197.25
  L 264.49 197.25
  C 264.78 197.25 265.01 197.02 265.01 196.73
  L 265.01 176.27"
/>
<path stroke="#b8cced" vector-effect="non-scaling-stroke" d="
  M 79.2676 165.8385
  C 79.27 165.55 79.04 165.32 78.7485 165.3175
  L 47.2086 165.2625
  C 46.92 165.26 46.69 165.49 46.6877 165.7816
  L 46.6324 197.4615
  C 46.63 197.75 46.86 197.98 47.1515 197.9825
  L 78.6914 198.0375
  C 78.98 198.04 79.21 197.81 79.2123 197.5184
  L 79.2676 165.8385"
/>
<path stroke="#b8cced" vector-effect="non-scaling-stroke" d="
  M 82.68 177.87
  Q 79.98 175.97 79.92 178.04
  Q 79.87 179.68 79.84 179.96
  Q 79.39 183.11 80.18 186.21
  C 80.25 186.47 80.53 186.63 80.78 186.54
  Q 86.35 184.60 83.68 179.06
  Q 83.34 178.34 82.68 177.87"
/>
<path stroke="#b8cced" vector-effect="non-scaling-stroke" d="
  M 70.01 181.82
  C 70.01 177.89 66.82 174.70 62.89 174.70
  C 58.96 174.70 55.77 177.89 55.77 181.82
  C 55.77 185.75 58.96 188.94 62.89 188.94
  C 66.82 188.94 70.01 185.75 70.01 181.82"
/>
<path stroke="#b8cced" vector-effect="non-scaling-stroke" d="
  M 64.17 175.43
  Q 56.46 175.11 56.45 181.46
  Q 56.44 184.79 58.31 186.57
  Q 60.42 188.58 64.23 188.20
  C 64.85 188.14 65.25 187.50 65.03 186.92
  Q 63.23 182.18 65.03 176.67
  C 65.22 176.07 64.79 175.46 64.17 175.43"
/>
<path stroke="#b8cced" vector-effect="non-scaling-stroke" d="
  M 154.02 186.50
  C 154.02 183.20 151.35 180.53 148.05 180.53
  C 144.75 180.53 142.08 183.20 142.08 186.50
  C 142.08 189.80 144.75 192.47 148.05 192.47
  C 151.35 192.47 154.02 189.80 154.02 186.50"
/>
<path stroke="#b8cced" vector-effect="non-scaling-stroke" d="
  M 287.48 186.60
  C 287.48 183.31 284.82 180.65 281.53 180.65
  C 278.24 180.65 275.58 183.31 275.58 186.60
  C 275.58 189.89 278.24 192.55 281.53 192.55
  C 284.82 192.55 287.48 189.89 287.48 186.60"
/>
</g>
<path fill="#7fa3de" d="
  M 0.00 0.00
  Q 114.66 0.00 229.31 0.00
  Q 217.18 0.41 205.05 0.50
  C 204.83 0.50 204.64 0.59 204.55 0.73
  Q 204.36 1.05 205.00 1.05
  Q 209.47 1.00 206.71 2.30
  C 206.41 2.44 206.20 2.70 206.17 2.99
  Q 205.97 4.88 207.94 5.07
  Q 210.26 5.29 207.27 6.35
  Q 206.45 6.64 206.66 5.80
  Q 206.96 4.63 206.02 5.59
  C 205.92 5.70 205.93 5.88 206.05 5.99
  Q 206.40 6.30 205.89 6.40
  C 205.73 6.43 205.52 6.37 205.32 6.22
  Q 204.81 5.86 204.46 6.50
  Q 169.81 2.38 136.43 11.04
  Q 127.00 13.49 117.47 17.38
  Q 45.57 46.77 16.80 118.94
  Q 13.01 128.47 10.64 137.95
  Q 0.75 177.51 8.78 217.50
  Q 10.74 227.27 13.86 236.83
  Q 21.11 259.08 33.06 277.44
  Q 65.78 327.66 122.10 348.45
  Q 130.98 351.73 141.27 354.10
  Q 153.72 356.96 163.75 358.00
  Q 205.37 362.33 244.94 347.24
  Q 254.13 343.74 263.15 338.99
  Q 327.17 305.26 350.79 235.25
  Q 351.42 235.63 351.69 234.69
  Q 351.94 233.80 353.62 229.77
  C 353.70 229.58 353.97 229.55 354.10 229.72
  Q 354.94 230.75 356.27 231.14
  C 356.55 231.22 356.77 231.45 356.84 231.74
  Q 357.36 233.89 359.50 234.36
  Q 359.60 234.38 360.35 234.29
  Q 360.59 234.26 360.81 234.38
  C 361.01 234.48 361.24 234.38 361.24 234.19
  L 361.15 231.55
  C 361.13 231.16 361.25 230.83 361.44 230.77
  Q 361.69 230.68 362.00 230.81
  Q 362.00 296.41 362.00 362.00
  Q 181.00 362.00 0.00 362.00
  Q 0.00 181.00 0.00 0.00
  Z"
/>
<path fill="#89abe1" d="
  M 229.31 0.00
  Q 295.66 0.00 362.00 0.00
  Q 362.00 115.41 362.00 230.81
  Q 361.69 230.68 361.44 230.77
  C 361.25 230.83 361.13 231.16 361.15 231.55
  L 361.24 234.19
  C 361.24 234.38 361.01 234.48 360.81 234.38
  Q 360.59 234.26 360.35 234.29
  Q 359.60 234.38 359.50 234.36
  Q 357.36 233.89 356.84 231.74
  C 356.77 231.45 356.55 231.22 356.27 231.14
  Q 354.94 230.75 354.10 229.72
  C 353.97 229.55 353.70 229.58 353.62 229.77
  Q 351.94 233.80 351.69 234.69
  Q 351.42 235.63 350.79 235.25
  Q 365.43 187.39 353.65 138.71
  Q 351.74 130.81 347.69 120.31
  Q 328.79 71.37 288.13 40.58
  Q 280.38 34.71 271.49 29.51
  Q 252.55 18.41 233.81 12.69
  Q 222.92 9.36 204.46 6.50
  Q 204.81 5.86 205.32 6.22
  C 205.52 6.37 205.73 6.43 205.89 6.40
  Q 206.40 6.30 206.05 5.99
  C 205.93 5.88 205.92 5.70 206.02 5.59
  Q 206.96 4.63 206.66 5.80
  Q 206.45 6.64 207.27 6.35
  Q 210.26 5.29 207.94 5.07
  Q 205.97 4.88 206.17 2.99
  C 206.20 2.70 206.41 2.44 206.71 2.30
  Q 209.47 1.00 205.00 1.05
  Q 204.36 1.05 204.55 0.73
  C 204.64 0.59 204.83 0.50 205.05 0.50
  Q 217.18 0.41 229.31 0.00
  Z"
/>
<path fill="#ffffff" d="
  M 204.46 6.50
  Q 222.92 9.36 233.81 12.69
  Q 252.55 18.41 271.49 29.51
  Q 280.38 34.71 288.13 40.58
  Q 328.79 71.37 347.69 120.31
  Q 351.74 130.81 353.65 138.71
  Q 365.43 187.39 350.79 235.25
  Q 327.17 305.26 263.15 338.99
  Q 254.13 343.74 244.94 347.24
  Q 205.37 362.33 163.75 358.00
  Q 153.72 356.96 141.27 354.10
  Q 130.98 351.73 122.10 348.45
  Q 65.78 327.66 33.06 277.44
  Q 21.11 259.08 13.86 236.83
  Q 10.74 227.27 8.78 217.50
  Q 0.75 177.51 10.64 137.95
  Q 13.01 128.47 16.80 118.94
  Q 45.57 46.77 117.47 17.38
  Q 127.00 13.49 136.43 11.04
  Q 169.81 2.38 204.46 6.50
  Z
  M 248.81 40.94
  Q 221.12 27.77 191.24 25.83
  Q 181.53 25.20 171.26 26.03
  Q 118.78 30.26 79.31 64.43
  Q 71.69 71.03 65.16 78.54
  Q 36.52 111.46 28.74 154.61
  Q 26.96 164.48 26.57 174.47
  Q 24.64 223.03 50.63 264.65
  Q 66.04 289.32 89.54 306.47
  Q 133.20 338.33 186.76 336.82
  Q 196.70 336.53 206.65 334.86
  Q 260.83 325.73 297.64 285.50
  Q 304.33 278.19 309.98 269.78
  Q 316.51 260.06 321.79 249.60
  Q 326.34 240.59 329.44 231.15
  Q 346.67 178.64 327.64 126.84
  Q 324.09 117.19 319.54 108.59
  Q 307.66 86.11 289.07 68.43
  Q 271.50 51.73 248.81 40.94
  Z"
/>
<path fill="#82a5df" d="
  M 248.81 40.94
  Q 271.50 51.73 289.07 68.43
  Q 307.66 86.11 319.54 108.59
  Q 324.09 117.19 327.64 126.84
  Q 346.67 178.64 329.44 231.15
  Q 326.34 240.59 321.79 249.60
  Q 316.51 260.06 309.98 269.78
  Q 304.33 278.19 297.64 285.50
  Q 260.83 325.73 206.65 334.86
  Q 196.70 336.53 186.76 336.82
  Q 133.20 338.33 89.54 306.47
  Q 66.04 289.32 50.63 264.65
  Q 24.64 223.03 26.57 174.47
  Q 26.96 164.48 28.74 154.61
  Q 36.52 111.46 65.16 78.54
  Q 71.69 71.03 79.31 64.43
  Q 118.78 30.26 171.26 26.03
  Q 181.53 25.20 191.24 25.83
  Q 221.12 27.77 248.81 40.94
  Z
  M 237.06 41.44
  Q 227.54 37.66 214.25 34.60
  Q 209.74 33.56 204.16 32.98
  Q 199.07 32.44 193.99 31.88
  Q 180.44 30.38 166.92 32.06
  Q 163.54 32.48 160.15 32.87
  Q 156.17 33.32 153.40 33.86
  Q 115.35 41.18 85.35 65.83
  Q 71.79 76.98 60.69 92.44
  Q 39.91 121.36 33.58 155.43
  Q 31.78 165.13 31.41 175.30
  Q 29.73 221.99 54.06 261.35
  Q 59.39 269.97 65.70 277.58
  Q 88.13 304.65 120.71 319.26
  Q 134.92 325.64 154.50 329.50
  Q 176.93 333.92 196.48 331.60
  Q 211.69 329.80 224.75 326.00
  Q 250.07 318.64 271.45 302.97
  Q 279.43 297.12 286.69 290.07
  Q 321.67 256.13 330.35 206.97
  Q 336.71 170.96 325.55 136.23
  Q 316.87 109.23 299.09 87.16
  Q 274.11 56.15 237.06 41.44
  Z"
/>
<path fill="#ffffff" d="
  M 237.06 41.44
  Q 274.11 56.15 299.09 87.16
  Q 316.87 109.23 325.55 136.23
  Q 336.71 170.96 330.35 206.97
  Q 321.67 256.13 286.69 290.07
  Q 279.43 297.12 271.45 302.97
  Q 250.07 318.64 224.75 326.00
  Q 211.69 329.80 196.48 331.60
  Q 176.93 333.92 154.50 329.50
  Q 134.92 325.64 120.71 319.26
  Q 88.13 304.65 65.70 277.58
  Q 59.39 269.97 54.06 261.35
  Q 29.73 221.99 31.41 175.30
  Q 31.78 165.13 33.58 155.43
  Q 39.91 121.36 60.69 92.44
  Q 71.79 76.98 85.35 65.83
  Q 115.35 41.18 153.40 33.86
  Q 156.17 33.32 160.15 32.87
  Q 163.54 32.48 166.92 32.06
  Q 180.44 30.38 193.99 31.88
  Q 199.07 32.44 204.16 32.98
  Q 209.74 33.56 214.25 34.60
  Q 227.54 37.66 237.06 41.44
  Z
  M 89.78 170.23
  Q 85.79 166.79 80.56 166.01
  C 80.28 165.97 80.02 165.77 79.86 165.49
  Q 79.32 164.51 78.13 164.62
  Q 76.93 164.74 76.86 164.74
  Q 61.46 164.48 46.06 164.44
  C 45.86 164.44 45.69 164.61 45.69 164.81
  L 45.81 198.19
  C 45.81 198.47 46.04 198.70 46.32 198.71
  Q 62.63 199.43 78.95 198.71
  C 79.24 198.70 79.53 198.55 79.75 198.31
  Q 80.06 197.96 80.42 197.67
  Q 80.89 197.28 81.69 197.12
  Q 92.27 194.95 94.59 185.38
  Q 95.64 181.04 94.48 177.28
  Q 93.22 173.19 89.78 170.23
  Z
  M 230.81 170.31
  C 230.81 168.59 229.41 167.19 227.69 167.19
  C 225.97 167.19 224.57 168.59 224.57 170.31
  C 224.57 172.03 225.97 173.43 227.69 173.43
  C 229.41 173.43 230.81 172.03 230.81 170.31
  Z
  M 265.20 170.29
  C 265.20 168.58 263.81 167.19 262.10 167.19
  C 260.39 167.19 259.00 168.58 259.00 170.29
  C 259.00 172.00 260.39 173.39 262.10 173.39
  C 263.81 173.39 265.20 172.00 265.20 170.29
  Z
  M 171.25 168.06
  C 171.25 167.89 171.11 167.75 170.94 167.75
  L 165.56 167.75
  C 165.39 167.75 165.25 167.89 165.25 168.06
  L 165.25 196.94
  C 165.25 197.11 165.39 197.25 165.56 197.25
  L 170.94 197.25
  C 171.11 197.25 171.25 197.11 171.25 196.94
  L 171.25 168.06
  Z
  M 182.81 183.94
  L 182.75 168.41
  C 182.75 168.05 182.45 167.75 182.09 167.75
  L 177.88 167.75
  C 177.39 167.75 177.00 168.14 177.00 168.62
  L 177.06 196.70
  C 177.06 196.98 177.28 197.21 177.56 197.21
  L 181.88 197.25
  C 182.48 197.26 182.93 196.70 182.82 196.10
  Q 182.14 192.50 184.59 190.77
  C 184.81 190.61 185.14 190.66 185.33 190.89
  L 190.25 196.81
  C 190.46 197.06 190.75 197.20 191.05 197.21
  L 196.93 197.24
  Q 197.47 197.25 197.14 196.82
  L 188.83 186.18
  C 188.65 185.95 188.66 185.63 188.86 185.40
  L 196.69 176.39
  Q 197.03 176.00 196.50 175.91
  Q 193.39 175.42 190.30 175.97
  C 190.02 176.02 189.75 176.20 189.53 176.46
  L 183.16 184.08
  Q 182.81 184.50 182.81 183.94
  Z
  M 128.55 174.93
  L 128.45 170.07
  C 128.44 169.78 128.21 169.55 127.93 169.54
  L 123.26 169.50
  C 122.98 169.50 122.75 169.74 122.75 170.03
  Q 122.75 172.75 122.78 174.75
  Q 122.80 175.90 121.17 175.40
  C 120.59 175.22 120.00 175.65 120.00 176.26
  Q 120.00 177.75 120.00 179.43
  Q 120.00 180.19 120.39 180.41
  Q 120.86 180.66 121.68 180.34
  C 122.19 180.14 122.75 180.52 122.75 181.07
  Q 122.75 186.63 122.79 192.50
  Q 122.81 196.69 126.50 197.50
  Q 128.60 197.96 131.94 197.73
  C 132.26 197.71 132.53 197.51 132.63 197.22
  Q 132.81 196.65 132.82 196.06
  Q 132.83 195.09 132.88 194.43
  Q 133.06 192.10 130.25 192.75
  Q 128.48 193.16 128.50 190.00
  L 128.55 181.06
  C 128.55 180.80 128.77 180.59 129.06 180.57
  L 132.06 180.38
  C 132.39 180.36 132.65 180.11 132.65 179.82
  L 132.66 176.24
  C 132.66 175.83 132.28 175.50 131.81 175.49
  L 129.05 175.47
  C 128.78 175.47 128.56 175.23 128.55 174.93
  Z
  M 153.54 195.70
  Q 153.91 195.91 153.89 196.44
  C 153.88 196.74 154.06 197.00 154.30 197.05
  Q 156.65 197.56 159.01 197.11
  C 159.30 197.05 159.50 196.80 159.50 196.50
  L 159.50 176.27
  C 159.50 175.98 159.27 175.75 158.98 175.75
  Q 156.47 175.75 154.58 175.75
  Q 154.18 175.75 153.96 175.93
  Q 153.64 176.21 153.73 176.60
  C 153.82 177.02 153.81 177.37 153.69 177.50
  Q 153.33 177.93 152.84 177.35
  Q 152.46 176.88 152.12 176.71
  Q 145.98 173.68 140.99 177.17
  Q 138.59 178.85 137.43 181.59
  Q 136.23 184.39 136.44 187.40
  Q 136.74 191.73 139.76 194.79
  Q 144.50 199.58 152.19 196.44
  Q 152.49 196.31 152.77 195.97
  C 153.01 195.69 153.33 195.58 153.54 195.70
  Z
  M 241.56 182.06
  Q 240.97 180.53 243.50 180.50
  Q 246.98 180.46 250.06 182.02
  C 250.35 182.16 250.68 182.11 250.84 181.89
  L 253.16 178.83
  C 253.33 178.61 253.26 178.28 253.01 178.11
  Q 247.01 174.11 240.47 176.11
  Q 238.15 176.82 237.01 178.13
  Q 235.53 179.84 235.75 182.25
  Q 236.22 187.35 241.47 188.41
  Q 244.02 188.92 246.59 189.38
  Q 247.41 189.53 247.80 189.86
  Q 248.53 190.46 248.16 191.27
  Q 247.86 191.92 246.90 192.17
  Q 242.75 193.23 239.16 190.79
  C 238.90 190.62 238.58 190.61 238.35 190.78
  Q 236.60 192.06 235.70 194.03
  C 235.58 194.30 235.67 194.63 235.91 194.80
  Q 241.61 198.78 248.57 197.34
  Q 252.01 196.64 253.31 194.06
  Q 255.56 189.63 252.54 186.69
  Q 251.28 185.47 248.47 184.63
  Q 244.79 183.54 243.94 183.56
  Q 242.16 183.61 241.56 182.06
  Z
  M 293.1586 186.3878
  C 293.06 180.25 287.79 175.35 281.3853 175.4514
  C 274.98 175.55 269.86 180.61 269.9614 186.7522
  C 270.06 192.89 275.33 197.79 281.7347 197.6886
  C 288.14 197.59 293.26 192.53 293.1586 186.3878
  Z
  M 304.16 176.80
  L 304.01 176.41
  C 303.88 176.08 303.60 175.86 303.32 175.86
  L 298.69 175.86
  C 298.40 175.86 298.17 176.12 298.17 176.43
  L 298.16 196.56
  C 298.16 196.87 298.39 197.13 298.67 197.13
  L 303.15 197.19
  C 303.62 197.20 304.00 196.79 304.00 196.28
  Q 304.00 190.50 304.11 184.50
  Q 304.18 180.65 307.75 180.25
  Q 310.16 179.98 311.31 181.67
  Q 311.98 182.66 312.10 184.97
  Q 312.39 190.46 312.23 196.55
  C 312.22 196.93 312.52 197.25 312.89 197.24
  L 317.68 197.21
  C 317.97 197.20 318.20 196.98 318.21 196.69
  Q 318.52 190.16 317.97 183.66
  Q 317.69 180.33 316.15 178.41
  Q 311.90 173.10 304.68 176.99
  C 304.49 177.09 304.25 177.00 304.16 176.80
  Z
  M 209.39 185.54
  L 204.97 176.21
  C 204.84 175.93 204.54 175.75 204.22 175.75
  L 199.60 175.75
  C 199.03 175.75 198.66 176.35 198.92 176.85
  L 209.52 197.32
  Q 209.75 197.76 210.01 197.31
  Q 215.96 187.12 221.04 176.45
  C 221.16 176.20 221.01 175.91 220.77 175.91
  L 215.89 175.88
  C 215.28 175.87 214.68 176.30 214.36 176.96
  L 210.18 185.56
  Q 209.79 186.37 209.39 185.54
  Z
  M 230.75 176.06
  C 230.75 175.89 230.61 175.75 230.44 175.75
  L 225.06 175.75
  C 224.89 175.75 224.75 175.89 224.75 176.06
  L 224.75 196.94
  C 224.75 197.11 224.89 197.25 225.06 197.25
  L 230.44 197.25
  C 230.61 197.25 230.75 197.11 230.75 196.94
  L 230.75 176.06
  Z
  M 265.01 176.27
  C 265.01 175.98 264.78 175.75 264.49 175.75
  L 259.77 175.75
  C 259.48 175.75 259.25 175.98 259.25 176.27
  L 259.25 196.73
  C 259.25 197.02 259.48 197.25 259.77 197.25
  L 264.49 197.25
  C 264.78 197.25 265.01 197.02 265.01 196.73
  L 265.01 176.27
  Z"
/>
<path fill="#7098da" d="
  M 89.78 170.23
  Q 93.22 173.19 94.48 177.28
  Q 95.64 181.04 94.59 185.38
  Q 92.27 194.95 81.69 197.12
  Q 80.89 197.28 80.42 197.67
  Q 80.06 197.96 79.75 198.31
  C 79.53 198.55 79.24 198.70 78.95 198.71
  Q 62.63 199.43 46.32 198.71
  C 46.04 198.70 45.81 198.47 45.81 198.19
  L 45.69 164.81
  C 45.69 164.61 45.86 164.44 46.06 164.44
  Q 61.46 164.48 76.86 164.74
  Q 76.93 164.74 78.13 164.62
  Q 79.32 164.51 79.86 165.49
  C 80.02 165.77 80.28 165.97 80.56 166.01
  Q 85.79 166.79 89.78 170.23
  Z
  M 79.2676 165.8385
  C 79.27 165.55 79.04 165.32 78.7485 165.3175
  L 47.2086 165.2625
  C 46.92 165.26 46.69 165.49 46.6877 165.7816
  L 46.6324 197.4615
  C 46.63 197.75 46.86 197.98 47.1515 197.9825
  L 78.6914 198.0375
  C 78.98 198.04 79.21 197.81 79.2123 197.5184
  L 79.2676 165.8385
  Z
  M 82.68 177.87
  Q 79.98 175.97 79.92 178.04
  Q 79.87 179.68 79.84 179.96
  Q 79.39 183.11 80.18 186.21
  C 80.25 186.47 80.53 186.63 80.78 186.54
  Q 86.35 184.60 83.68 179.06
  Q 83.34 178.34 82.68 177.87
  Z"
/>
<path fill="#ffffff" d="
  M 79.2123 197.5184
  C 79.21 197.81 78.98 198.04 78.6914 198.0375
  L 47.1515 197.9825
  C 46.86 197.98 46.63 197.75 46.6324 197.4615
  L 46.6877 165.7816
  C 46.69 165.49 46.92 165.26 47.2086 165.2625
  L 78.7485 165.3175
  C 79.04 165.32 79.27 165.55 79.2676 165.8385
  L 79.2123 197.5184
  Z
  M 70.01 181.82
  C 70.01 177.89 66.82 174.70 62.89 174.70
  C 58.96 174.70 55.77 177.89 55.77 181.82
  C 55.77 185.75 58.96 188.94 62.89 188.94
  C 66.82 188.94 70.01 185.75 70.01 181.82
  Z"
/>
<circle fill="#7098da" cx="227.69" cy="170.31" r="3.12"/>
<circle fill="#7098da" cx="262.10" cy="170.29" r="3.10"/>
<rect fill="#7098da" x="165.25" y="167.75" width="6.00" height="29.50" rx="0.31"/>
<path fill="#7098da" d="
  M 183.16 184.08
  L 189.53 176.46
  C 189.75 176.20 190.02 176.02 190.30 175.97
  Q 193.39 175.42 196.50 175.91
  Q 197.03 176.00 196.69 176.39
  L 188.86 185.40
  C 188.66 185.63 188.65 185.95 188.83 186.18
  L 197.14 196.82
  Q 197.47 197.25 196.93 197.24
  L 191.05 197.21
  C 190.75 197.20 190.46 197.06 190.25 196.81
  L 185.33 190.89
  C 185.14 190.66 184.81 190.61 184.59 190.77
  Q 182.14 192.50 182.82 196.10
  C 182.93 196.70 182.48 197.26 181.88 197.25
  L 177.56 197.21
  C 177.28 197.21 177.06 196.98 177.06 196.70
  L 177.00 168.62
  C 177.00 168.14 177.39 167.75 177.88 167.75
  L 182.09 167.75
  C 182.45 167.75 182.75 168.05 182.75 168.41
  L 182.81 183.94
  Q 182.81 184.50 183.16 184.08
  Z"
/>
<path fill="#7098da" d="
  M 129.05 175.47
  L 131.81 175.49
  C 132.28 175.50 132.66 175.83 132.66 176.24
  L 132.65 179.82
  C 132.65 180.11 132.39 180.36 132.06 180.38
  L 129.06 180.57
  C 128.77 180.59 128.55 180.80 128.55 181.06
  L 128.50 190.00
  Q 128.48 193.16 130.25 192.75
  Q 133.06 192.10 132.88 194.43
  Q 132.83 195.09 132.82 196.06
  Q 132.81 196.65 132.63 197.22
  C 132.53 197.51 132.26 197.71 131.94 197.73
  Q 128.60 197.96 126.50 197.50
  Q 122.81 196.69 122.79 192.50
  Q 122.75 186.63 122.75 181.07
  C 122.75 180.52 122.19 180.14 121.68 180.34
  Q 120.86 180.66 120.39 180.41
  Q 120.00 180.19 120.00 179.43
  Q 120.00 177.75 120.00 176.26
  C 120.00 175.65 120.59 175.22 121.17 175.40
  Q 122.80 175.90 122.78 174.75
  Q 122.75 172.75 122.75 170.03
  C 122.75 169.74 122.98 169.50 123.26 169.50
  L 127.93 169.54
  C 128.21 169.55 128.44 169.78 128.45 170.07
  L 128.55 174.93
  C 128.56 175.23 128.78 175.47 129.05 175.47
  Z"
/>
<path fill="#7098da" d="
  M 70.01 181.82
  C 70.01 185.75 66.82 188.94 62.89 188.94
  C 58.96 188.94 55.77 185.75 55.77 181.82
  C 55.77 177.89 58.96 174.70 62.89 174.70
  C 66.82 174.70 70.01 177.89 70.01 181.82
  Z
  M 64.17 175.43
  Q 56.46 175.11 56.45 181.46
  Q 56.44 184.79 58.31 186.57
  Q 60.42 188.58 64.23 188.20
  C 64.85 188.14 65.25 187.50 65.03 186.92
  Q 63.23 182.18 65.03 176.67
  C 65.22 176.07 64.79 175.46 64.17 175.43
  Z"
/>
<path fill="#ffffff" d="
  M 64.17 175.43
  C 64.79 175.46 65.22 176.07 65.03 176.67
  Q 63.23 182.18 65.03 186.92
  C 65.25 187.50 64.85 188.14 64.23 188.20
  Q 60.42 188.58 58.31 186.57
  Q 56.44 184.79 56.45 181.46
  Q 56.46 175.11 64.17 175.43
  Z"
/>
<path fill="#7098da" d="
  M 152.77 195.97
  Q 152.49 196.31 152.19 196.44
  Q 144.50 199.58 139.76 194.79
  Q 136.74 191.73 136.44 187.40
  Q 136.23 184.39 137.43 181.59
  Q 138.59 178.85 140.99 177.17
  Q 145.98 173.68 152.12 176.71
  Q 152.46 176.88 152.84 177.35
  Q 153.33 177.93 153.69 177.50
  C 153.81 177.37 153.82 177.02 153.73 176.60
  Q 153.64 176.21 153.96 175.93
  Q 154.18 175.75 154.58 175.75
  Q 156.47 175.75 158.98 175.75
  C 159.27 175.75 159.50 175.98 159.50 176.27
  L 159.50 196.50
  C 159.50 196.80 159.30 197.05 159.01 197.11
  Q 156.65 197.56 154.30 197.05
  C 154.06 197.00 153.88 196.74 153.89 196.44
  Q 153.91 195.91 153.54 195.70
  C 153.33 195.58 153.01 195.69 152.77 195.97
  Z
  M 154.02 186.50
  C 154.02 183.20 151.35 180.53 148.05 180.53
  C 144.75 180.53 142.08 183.20 142.08 186.50
  C 142.08 189.80 144.75 192.47 148.05 192.47
  C 151.35 192.47 154.02 189.80 154.02 186.50
  Z"
/>
<path fill="#7098da" d="
  M 241.56 182.06
  Q 242.16 183.61 243.94 183.56
  Q 244.79 183.54 248.47 184.63
  Q 251.28 185.47 252.54 186.69
  Q 255.56 189.63 253.31 194.06
  Q 252.01 196.64 248.57 197.34
  Q 241.61 198.78 235.91 194.80
  C 235.67 194.63 235.58 194.30 235.70 194.03
  Q 236.60 192.06 238.35 190.78
  C 238.58 190.61 238.90 190.62 239.16 190.79
  Q 242.75 193.23 246.90 192.17
  Q 247.86 191.92 248.16 191.27
  Q 248.53 190.46 247.80 189.86
  Q 247.41 189.53 246.59 189.38
  Q 244.02 188.92 241.47 188.41
  Q 236.22 187.35 235.75 182.25
  Q 235.53 179.84 237.01 178.13
  Q 238.15 176.82 240.47 176.11
  Q 247.01 174.11 253.01 178.11
  C 253.26 178.28 253.33 178.61 253.16 178.83
  L 250.84 181.89
  C 250.68 182.11 250.35 182.16 250.06 182.02
  Q 246.98 180.46 243.50 180.50
  Q 240.97 180.53 241.56 182.06
  Z"
/>
<path fill="#7098da" d="
  M 293.1586 186.3878
  C 293.26 192.53 288.14 197.59 281.7347 197.6886
  C 275.33 197.79 270.06 192.89 269.9614 186.7522
  C 269.86 180.61 274.98 175.55 281.3853 175.4514
  C 287.79 175.35 293.06 180.25 293.1586 186.3878
  Z
  M 287.48 186.60
  C 287.48 183.31 284.82 180.65 281.53 180.65
  C 278.24 180.65 275.58 183.31 275.58 186.60
  C 275.58 189.89 278.24 192.55 281.53 192.55
  C 284.82 192.55 287.48 189.89 287.48 186.60
  Z"
/>
<path fill="#7098da" d="
  M 304.68 176.99
  Q 311.90 173.10 316.15 178.41
  Q 317.69 180.33 317.97 183.66
  Q 318.52 190.16 318.21 196.69
  C 318.20 196.98 317.97 197.20 317.68 197.21
  L 312.89 197.24
  C 312.52 197.25 312.22 196.93 312.23 196.55
  Q 312.39 190.46 312.10 184.97
  Q 311.98 182.66 311.31 181.67
  Q 310.16 179.98 307.75 180.25
  Q 304.18 180.65 304.11 184.50
  Q 304.00 190.50 304.00 196.28
  C 304.00 196.79 303.62 197.20 303.15 197.19
  L 298.67 197.13
  C 298.39 197.13 298.16 196.87 298.16 196.56
  L 298.17 176.43
  C 298.17 176.12 298.40 175.86 298.69 175.86
  L 303.32 175.86
  C 303.60 175.86 303.88 176.08 304.01 176.41
  L 304.16 176.80
  C 304.25 177.00 304.49 177.09 304.68 176.99
  Z"
/>
<path fill="#7098da" d="
  M 209.39 185.54
  Q 209.79 186.37 210.18 185.56
  L 214.36 176.96
  C 214.68 176.30 215.28 175.87 215.89 175.88
  L 220.77 175.91
  C 221.01 175.91 221.16 176.20 221.04 176.45
  Q 215.96 187.12 210.01 197.31
  Q 209.75 197.76 209.52 197.32
  L 198.92 176.85
  C 198.66 176.35 199.03 175.75 199.60 175.75
  L 204.22 175.75
  C 204.54 175.75 204.84 175.93 204.97 176.21
  L 209.39 185.54
  Z"
/>
<rect fill="#7098da" x="224.75" y="175.75" width="6.00" height="21.50" rx="0.31"/>
<rect fill="#7098da" x="259.25" y="175.75" width="5.76" height="21.50" rx="0.52"/>
<path fill="#ffffff" d="
  M 82.68 177.87
  Q 83.34 178.34 83.68 179.06
  Q 86.35 184.60 80.78 186.54
  C 80.53 186.63 80.25 186.47 80.18 186.21
  Q 79.39 183.11 79.84 179.96
  Q 79.87 179.68 79.92 178.04
  Q 79.98 175.97 82.68 177.87
  Z"
/>
<circle fill="#ffffff" cx="148.05" cy="186.50" r="5.97"/>
<circle fill="#ffffff" cx="281.53" cy="186.60" r="5.95"/>
</svg>
