<?xml version="1.0" encoding="UTF-8" standalone="no"?>
<!DOCTYPE svg PUBLIC "-//W3C//DTD SVG 1.1//EN" "http://www.w3.org/Graphics/SVG/1.1/DTD/svg11.dtd">
<svg xmlns="http://www.w3.org/2000/svg" version="1.1" viewBox="0 0 331 331">
<g stroke-width="2.0" fill="none" stroke-linecap="butt">
<path stroke="#b8cced" vector-effect="non-scaling-stroke" d="
  M 16.17 110.43
  Q 10.02 127.08 8.00 141.75
  Q 7.55 144.99 7.24 146.94
  Q 6.70 150.25 6.61 152.12
  Q 5.99 164.93 6.45 177.76
  Q 6.54 180.43 7.06 183.58
  Q 7.54 186.48 7.94 189.38
  Q 8.72 195.04 9.37 198.06
  Q 18.48 240.54 46.97 272.65
  Q 53.53 280.05 61.20 286.67
  Q 81.24 303.94 103.69 313.06
  Q 127.73 322.83 149.19 325.31
  Q 162.25 326.82 180.48 325.47
  Q 182.93 325.29 185.98 324.76
  Q 188.70 324.28 191.44 323.88
  Q 196.22 323.17 199.60 322.33
  Q 215.70 318.29 226.50 313.75
  Q 279.74 291.37 306.68 241.60
  Q 311.48 232.73 315.07 223.48
  Q 327.25 192.16 325.75 159.50
  Q 323.24 104.96 288.44 63.42
  Q 281.98 55.71 274.64 48.97
  Q 243.94 20.77 203.22 10.48
  Q 197.36 9.01 189.80 8.02
  Q 181.65 6.96 176.25 6.50
  Q 166.54 5.67 156.13 6.50
  Q 148.30 7.12 141.87 7.99
  Q 134.74 8.95 127.76 10.79
  Q 75.83 24.49 42.24 64.94
  Q 35.69 72.83 30.51 81.14
  Q 21.87 95.01 16.17 110.43"
/>
<path stroke="#b8cced" vector-effect="non-scaling-stroke" d="
  M 231.06 40.44
  Q 202.07 25.26 168.49 25.00
  Q 157.81 24.92 148.53 25.91
  Q 138.19 27.01 128.19 29.84
  Q 117.92 32.74 109.35 36.49
  Q 100.58 40.33 91.44 46.19
  Q 51.57 71.72 34.98 114.88
  Q 18.39 158.03 30.53 202.79
  Q 38.20 231.09 56.72 253.79
  Q 86.22 289.95 131.50 301.75
  Q 141.90 304.46 156.14 305.63
  Q 165.20 306.37 173.98 305.71
  Q 183.35 305.01 191.75 303.50
  Q 205.54 301.02 219.01 295.68
  Q 228.33 291.98 236.93 286.86
  Q 261.91 271.99 279.24 248.66
  Q 285.19 240.65 289.94 231.79
  Q 304.03 205.52 306.25 176.75
  Q 308.76 144.27 296.75 113.75
  Q 283.93 81.18 257.49 58.78
  Q 243.56 46.98 231.06 40.44"
/>
<path stroke="#b8cced" vector-effect="non-scaling-stroke" d="
  M 249.87 58.46
  Q 244.22 53.91 237.44 49.81
  Q 199.39 26.85 155.24 30.16
  Q 131.12 31.97 109.69 41.69
  Q 92.17 49.63 77.33 62.22
  Q 69.76 68.64 63.21 76.32
  Q 39.90 103.62 32.49 138.90
  Q 30.41 148.77 29.92 158.71
  Q 28.50 187.40 38.50 213.75
  Q 54.18 255.09 90.79 279.22
  Q 99.20 284.76 108.24 288.95
  Q 137.51 302.53 170.01 301.90
  Q 177.98 301.75 186.89 300.20
  Q 196.08 298.61 203.50 296.50
  Q 247.35 284.02 275.01 247.05
  Q 294.63 220.84 300.25 188.50
  Q 304.61 163.41 299.50 139.00
  Q 290.85 97.71 261.10 68.59
  Q 254.85 62.47 249.87 58.46"
/>
<path stroke="#b8cced" vector-effect="non-scaling-stroke" d="
  M 80.28 147.63
  Q 73.86 144.56 67.07 146.88
  Q 62.17 148.57 59.79 151.85
  Q 56.57 156.27 59.71 161.79
  Q 59.79 161.93 62.07 164.49
  Q 64.39 167.10 60.80 170.17
  Q 60.08 170.79 61.03 170.75
  Q 64.99 170.57 67.68 167.94
  C 67.95 167.68 68.33 167.56 68.71 167.62
  Q 76.58 168.93 82.37 165.27
  Q 85.42 163.34 86.75 160.43
  Q 88.42 156.79 86.77 153.44
  Q 85.04 149.91 80.28 147.63"
/>
<path stroke="#b8cced" vector-effect="non-scaling-stroke" d="
  M 210.13 155.43
  C 210.13 153.88 208.87 152.62 207.32 152.62
  C 205.77 152.62 204.51 153.88 204.51 155.43
  C 204.51 156.98 205.77 158.24 207.32 158.24
  C 208.87 158.24 210.13 156.98 210.13 155.43"
/>
<path stroke="#b8cced" vector-effect="non-scaling-stroke" d="
  M 241.22 155.42
  C 241.22 153.86 239.96 152.60 238.40 152.60
  C 236.84 152.60 235.58 153.86 235.58 155.42
  C 235.58 156.98 236.84 158.24 238.40 158.24
  C 239.96 158.24 241.22 156.98 241.22 155.42"
/>
<path stroke="#b8cced" vector-effect="non-scaling-stroke" d="
  M 156.25 153.74
  C 156.25 153.33 155.92 153.00 155.51 153.00
  L 151.73 153.00
  C 151.32 153.00 150.99 153.33 150.99 153.74
  L 150.99 179.00
  C 150.99 179.41 151.32 179.74 151.73 179.74
  L 155.51 179.74
  C 155.92 179.74 156.25 179.41 156.25 179.00
  L 156.25 153.74"
/>
<path stroke="#b8cced" vector-effect="non-scaling-stroke" d="
  M 166.81 167.70
  L 166.75 153.73
  C 166.75 153.33 166.44 153.01 166.06 153.01
  L 162.06 153.04
  C 161.78 153.04 161.56 153.27 161.56 153.56
  L 161.56 179.19
  C 161.56 179.48 161.79 179.71 162.07 179.72
  L 165.49 179.75
  C 166.28 179.76 166.91 179.03 166.83 178.18
  Q 166.56 175.10 168.31 173.99
  C 168.55 173.84 168.88 173.90 169.07 174.13
  L 173.18 179.11
  C 173.43 179.41 173.74 179.59 174.00 179.59
  L 179.26 179.59
  Q 179.82 179.59 179.45 179.11
  L 172.18 169.77
  C 172.05 169.59 172.05 169.35 172.20 169.17
  L 179.20 161.08
  Q 179.62 160.59 178.99 160.60
  L 173.68 160.62
  C 173.42 160.62 173.13 160.79 172.88 161.08
  L 167.15 167.83
  Q 166.81 168.22 166.81 167.70"
/>
<path stroke="#b8cced" vector-effect="non-scaling-stroke" d="
  M 118.30 164.91
  Q 122.58 165.62 121.35 160.63
  C 121.23 160.14 120.73 159.83 120.24 159.95
  Q 117.09 160.66 117.89 157.14
  Q 118.44 154.69 116.29 154.69
  L 113.94 154.70
  Q 111.81 154.70 112.36 157.11
  Q 113.09 160.34 110.74 160.08
  C 110.45 160.05 110.19 160.22 110.14 160.48
  Q 109.74 162.38 110.14 164.27
  C 110.19 164.53 110.45 164.69 110.73 164.64
  Q 112.84 164.28 112.62 166.15
  Q 112.48 167.26 112.48 167.36
  Q 112.34 172.42 112.72 177.14
  Q 112.88 179.13 114.80 179.68
  Q 117.47 180.46 120.89 180.20
  C 121.23 180.18 121.50 179.89 121.50 179.55
  L 121.50 176.51
  C 121.50 176.02 121.07 175.65 120.58 175.71
  Q 119.02 175.91 118.30 175.12
  Q 117.82 174.59 117.78 173.13
  Q 117.68 169.22 117.80 165.32
  C 117.81 165.06 118.04 164.87 118.30 164.91"
/>
<path stroke="#b8cced" vector-effect="non-scaling-stroke" d="
  M 50.34 169.13
  L 52.09 167.29
  C 52.31 167.06 52.42 166.74 52.38 166.44
  Q 52.00 163.39 50.40 159.75
  Q 49.66 158.08 47.91 158.57
  Q 45.36 159.27 44.03 160.88
  Q 42.86 162.30 43.36 164.86
  Q 47.19 184.13 67.19 186.63
  C 67.53 186.67 67.86 186.61 68.13 186.45
  Q 70.63 184.95 70.89 180.82
  C 70.92 180.32 70.65 179.88 70.24 179.74
  L 63.55 177.42
  C 63.30 177.33 62.97 177.42 62.68 177.64
  L 60.66 179.21
  C 60.42 179.39 60.09 179.43 59.80 179.29
  Q 53.46 176.21 50.23 169.95
  C 50.09 169.68 50.13 169.35 50.34 169.13"
/>
<path stroke="#b8cced" vector-effect="non-scaling-stroke" d="
  M 140.43 179.06
  Q 140.53 179.66 141.25 179.68
  Q 143.25 179.75 144.90 179.75
  C 145.37 179.75 145.75 179.37 145.75 178.90
  Q 145.75 170.93 145.75 163.54
  Q 145.75 163.43 145.88 161.98
  Q 146.04 160.14 144.39 160.11
  Q 142.84 160.08 142.11 160.20
  Q 141.06 160.37 139.97 161.34
  C 139.82 161.48 139.59 161.50 139.42 161.39
  Q 135.97 159.17 131.68 160.40
  Q 126.31 161.94 125.15 167.43
  Q 123.79 173.92 127.97 177.66
  Q 130.38 179.82 133.65 180.07
  Q 136.89 180.32 139.99 178.79
  C 140.17 178.70 140.39 178.84 140.43 179.06"
/>
<path stroke="#b8cced" vector-effect="non-scaling-stroke" d="
  M 222.02 175.66
  L 217.21 173.94
  C 216.92 173.83 216.60 173.92 216.44 174.15
  L 214.66 176.73
  C 214.42 177.08 214.54 177.56 214.91 177.79
  Q 220.14 181.03 226.16 179.79
  Q 229.76 179.05 230.81 176.06
  Q 232.16 172.25 229.68 170.00
  Q 228.53 168.97 225.51 168.23
  Q 223.27 167.69 221.06 167.04
  Q 219.55 166.60 220.15 165.59
  Q 220.46 165.05 221.22 164.88
  Q 224.03 164.23 226.94 165.91
  C 227.47 166.22 228.13 166.11 228.45 165.66
  L 230.19 163.25
  C 230.35 163.02 230.28 162.70 230.03 162.52
  Q 224.96 158.93 219.23 160.61
  Q 216.98 161.27 215.77 162.66
  Q 214.17 164.50 214.67 166.84
  Q 215.20 169.35 217.85 170.87
  Q 220.23 172.22 223.08 172.45
  Q 224.38 172.56 224.89 172.73
  Q 227.03 173.45 225.33 174.96
  Q 223.81 176.31 222.02 175.66"
/>
<path stroke="#b8cced" vector-effect="non-scaling-stroke" d="
  M 266.4794 170.0203
  C 266.42 164.48 261.68 160.03 255.8949 160.0906
  C 250.11 160.15 245.46 164.70 245.5206 170.2397
  C 245.58 175.78 250.32 180.23 256.1051 180.1694
  C 261.89 180.11 266.54 175.56 266.4794 170.0203"
/>
<path stroke="#b8cced" vector-effect="non-scaling-stroke" d="
  M 276.34 161.18
  Q 276.30 160.84 276.12 160.59
  C 275.97 160.38 275.64 160.25 275.25 160.25
  L 271.67 160.25
  C 271.30 160.25 271.00 160.55 271.00 160.91
  L 271.06 178.95
  C 271.06 179.24 271.26 179.50 271.55 179.57
  Q 273.52 180.05 275.52 179.62
  C 275.81 179.55 276.02 179.31 276.05 179.01
  Q 276.54 174.27 276.25 171.50
  Q 276.00 169.16 276.58 167.30
  Q 277.25 165.13 279.29 164.53
  Q 281.34 163.93 282.68 165.60
  Q 283.49 166.62 283.59 168.63
  Q 283.86 173.77 283.82 178.93
  C 283.81 179.29 284.03 179.58 284.30 179.58
  L 288.37 179.56
  C 288.70 179.55 288.97 179.25 288.98 178.87
  Q 289.13 173.01 288.88 167.75
  Q 288.74 164.79 287.96 163.41
  Q 286.76 161.27 284.25 160.50
  Q 280.37 159.31 276.73 161.43
  C 276.57 161.53 276.36 161.39 276.34 161.18"
/>
<path stroke="#b8cced" vector-effect="non-scaling-stroke" d="
  M 210.01 160.68
  C 210.01 160.44 209.82 160.25 209.58 160.25
  L 205.18 160.25
  C 204.94 160.25 204.75 160.44 204.75 160.68
  L 204.75 179.32
  C 204.75 179.56 204.94 179.75 205.18 179.75
  L 209.58 179.75
  C 209.82 179.75 210.01 179.56 210.01 179.32
  L 210.01 160.68"
/>
<path stroke="#b8cced" vector-effect="non-scaling-stroke" d="
  M 241.01 160.68
  C 241.01 160.44 240.82 160.25 240.58 160.25
  L 236.18 160.25
  C 235.94 160.25 235.75 160.44 235.75 160.68
  L 235.75 179.32
  C 235.75 179.56 235.94 179.75 236.18 179.75
  L 240.58 179.75
  C 240.82 179.75 241.01 179.56 241.01 179.32
  L 241.01 160.68"
/>
<path stroke="#b8cced" vector-effect="non-scaling-stroke" d="
  M 191.71 168.90
  Q 191.18 170.01 190.64 168.87
  L 186.91 161.00
  C 186.78 160.72 186.50 160.54 186.19 160.54
  L 181.97 160.51
  C 181.47 160.51 181.15 161.04 181.38 161.50
  L 190.77 179.80
  Q 191.25 180.72 191.73 179.79
  L 201.28 161.20
  C 201.44 160.88 201.22 160.50 200.86 160.50
  L 196.20 160.50
  C 195.89 160.50 195.60 160.68 195.47 160.97
  L 191.71 168.90"
/>
<path stroke="#b8cced" vector-effect="non-scaling-stroke" d="
  M 68.76 156.79
  C 68.76 155.74 67.91 154.89 66.86 154.89
  C 65.81 154.89 64.96 155.74 64.96 156.79
  C 64.96 157.84 65.81 158.69 66.86 158.69
  C 67.91 158.69 68.76 157.84 68.76 156.79"
/>
<path stroke="#b8cced" vector-effect="non-scaling-stroke" d="
  M 74.69 156.78
  C 74.69 155.75 73.85 154.91 72.82 154.91
  C 71.79 154.91 70.95 155.75 70.95 156.78
  C 70.95 157.81 71.79 158.65 72.82 158.65
  C 73.85 158.65 74.69 157.81 74.69 156.78"
/>
<path stroke="#b8cced" vector-effect="non-scaling-stroke" d="
  M 80.67 156.78
  C 80.67 155.75 79.83 154.91 78.80 154.91
  C 77.77 154.91 76.93 155.75 76.93 156.78
  C 76.93 157.81 77.77 158.65 78.80 158.65
  C 79.83 158.65 80.67 157.81 80.67 156.78"
/>
<path stroke="#b8cced" vector-effect="non-scaling-stroke" d="
  M 140.69 170.07
  C 140.69 167.10 138.29 164.70 135.32 164.70
  C 132.35 164.70 129.95 167.10 129.95 170.07
  C 129.95 173.04 132.35 175.44 135.32 175.44
  C 138.29 175.44 140.69 173.04 140.69 170.07"
/>
<path stroke="#b8cced" vector-effect="non-scaling-stroke" d="
  M 261.35 170.15
  C 261.35 167.19 258.95 164.79 255.99 164.79
  C 253.03 164.79 250.63 167.19 250.63 170.15
  C 250.63 173.11 253.03 175.51 255.99 175.51
  C 258.95 175.51 261.35 173.11 261.35 170.15"
/>
</g>
<path fill="#ffffff" d="
  M 0.00 0.00
  Q 165.50 0.00 331.00 0.00
  Q 331.00 165.50 331.00 331.00
  Q 165.50 331.00 0.00 331.00
  Q 0.00 165.50 0.00 0.00
  Z
  M 16.17 110.43
  Q 10.02 127.08 8.00 141.75
  Q 7.55 144.99 7.24 146.94
  Q 6.70 150.25 6.61 152.12
  Q 5.99 164.93 6.45 177.76
  Q 6.54 180.43 7.06 183.58
  Q 7.54 186.48 7.94 189.38
  Q 8.72 195.04 9.37 198.06
  Q 18.48 240.54 46.97 272.65
  Q 53.53 280.05 61.20 286.67
  Q 81.24 303.94 103.69 313.06
  Q 127.73 322.83 149.19 325.31
  Q 162.25 326.82 180.48 325.47
  Q 182.93 325.29 185.98 324.76
  Q 188.70 324.28 191.44 323.88
  Q 196.22 323.17 199.60 322.33
  Q 215.70 318.29 226.50 313.75
  Q 279.74 291.37 306.68 241.60
  Q 311.48 232.73 315.07 223.48
  Q 327.25 192.16 325.75 159.50
  Q 323.24 104.96 288.44 63.42
  Q 281.98 55.71 274.64 48.97
  Q 243.94 20.77 203.22 10.48
  Q 197.36 9.01 189.80 8.02
  Q 181.65 6.96 176.25 6.50
  Q 166.54 5.67 156.13 6.50
  Q 148.30 7.12 141.87 7.99
  Q 134.74 8.95 127.76 10.79
  Q 75.83 24.49 42.24 64.94
  Q 35.69 72.83 30.51 81.14
  Q 21.87 95.01 16.17 110.43
  Z"
/>
<path fill="#7098da" d="
  M 16.17 110.43
  Q 21.87 95.01 30.51 81.14
  Q 35.69 72.83 42.24 64.94
  Q 75.83 24.49 127.76 10.79
  Q 134.74 8.95 141.87 7.99
  Q 148.30 7.12 156.13 6.50
  Q 166.54 5.67 176.25 6.50
  Q 181.65 6.96 189.80 8.02
  Q 197.36 9.01 203.22 10.48
  Q 243.94 20.77 274.64 48.97
  Q 281.98 55.71 288.44 63.42
  Q 323.24 104.96 325.75 159.50
  Q 327.25 192.16 315.07 223.48
  Q 311.48 232.73 306.68 241.60
  Q 279.74 291.37 226.50 313.75
  Q 215.70 318.29 199.60 322.33
  Q 196.22 323.17 191.44 323.88
  Q 188.70 324.28 185.98 324.76
  Q 182.93 325.29 180.48 325.47
  Q 162.25 326.82 149.19 325.31
  Q 127.73 322.83 103.69 313.06
  Q 81.24 303.94 61.20 286.67
  Q 53.53 280.05 46.97 272.65
  Q 18.48 240.54 9.37 198.06
  Q 8.72 195.04 7.94 189.38
  Q 7.54 186.48 7.06 183.58
  Q 6.54 180.43 6.45 177.76
  Q 5.99 164.93 6.61 152.12
  Q 6.70 150.25 7.24 146.94
  Q 7.55 144.99 8.00 141.75
  Q 10.02 127.08 16.17 110.43
  Z
  M 231.06 40.44
  Q 202.07 25.26 168.49 25.00
  Q 157.81 24.92 148.53 25.91
  Q 138.19 27.01 128.19 29.84
  Q 117.92 32.74 109.35 36.49
  Q 100.58 40.33 91.44 46.19
  Q 51.57 71.72 34.98 114.88
  Q 18.39 158.03 30.53 202.79
  Q 38.20 231.09 56.72 253.79
  Q 86.22 289.95 131.50 301.75
  Q 141.90 304.46 156.14 305.63
  Q 165.20 306.37 173.98 305.71
  Q 183.35 305.01 191.75 303.50
  Q 205.54 301.02 219.01 295.68
  Q 228.33 291.98 236.93 286.86
  Q 261.91 271.99 279.24 248.66
  Q 285.19 240.65 289.94 231.79
  Q 304.03 205.52 306.25 176.75
  Q 308.76 144.27 296.75 113.75
  Q 283.93 81.18 257.49 58.78
  Q 243.56 46.98 231.06 40.44
  Z"
/>
<path fill="#ffffff" d="
  M 231.06 40.44
  Q 243.56 46.98 257.49 58.78
  Q 283.93 81.18 296.75 113.75
  Q 308.76 144.27 306.25 176.75
  Q 304.03 205.52 289.94 231.79
  Q 285.19 240.65 279.24 248.66
  Q 261.91 271.99 236.93 286.86
  Q 228.33 291.98 219.01 295.68
  Q 205.54 301.02 191.75 303.50
  Q 183.35 305.01 173.98 305.71
  Q 165.20 306.37 156.14 305.63
  Q 141.90 304.46 131.50 301.75
  Q 86.22 289.95 56.72 253.79
  Q 38.20 231.09 30.53 202.79
  Q 18.39 158.03 34.98 114.88
  Q 51.57 71.72 91.44 46.19
  Q 100.58 40.33 109.35 36.49
  Q 117.92 32.74 128.19 29.84
  Q 138.19 27.01 148.53 25.91
  Q 157.81 24.92 168.49 25.00
  Q 202.07 25.26 231.06 40.44
  Z
  M 249.87 58.46
  Q 244.22 53.91 237.44 49.81
  Q 199.39 26.85 155.24 30.16
  Q 131.12 31.97 109.69 41.69
  Q 92.17 49.63 77.33 62.22
  Q 69.76 68.64 63.21 76.32
  Q 39.90 103.62 32.49 138.90
  Q 30.41 148.77 29.92 158.71
  Q 28.50 187.40 38.50 213.75
  Q 54.18 255.09 90.79 279.22
  Q 99.20 284.76 108.24 288.95
  Q 137.51 302.53 170.01 301.90
  Q 177.98 301.75 186.89 300.20
  Q 196.08 298.61 203.50 296.50
  Q 247.35 284.02 275.01 247.05
  Q 294.63 220.84 300.25 188.50
  Q 304.61 163.41 299.50 139.00
  Q 290.85 97.71 261.10 68.59
  Q 254.85 62.47 249.87 58.46
  Z"
/>
<path fill="#7098da" d="
  M 261.10 68.59
  Q 290.85 97.71 299.50 139.00
  Q 304.61 163.41 300.25 188.50
  Q 294.63 220.84 275.01 247.05
  Q 247.35 284.02 203.50 296.50
  Q 196.08 298.61 186.89 300.20
  Q 177.98 301.75 170.01 301.90
  Q 137.51 302.53 108.24 288.95
  Q 99.20 284.76 90.79 279.22
  Q 54.18 255.09 38.50 213.75
  Q 28.50 187.40 29.92 158.71
  Q 30.41 148.77 32.49 138.90
  Q 39.90 103.62 63.21 76.32
  Q 69.76 68.64 77.33 62.22
  Q 92.17 49.63 109.69 41.69
  Q 131.12 31.97 155.24 30.16
  Q 199.39 26.85 237.44 49.81
  Q 244.22 53.91 249.87 58.46
  Q 254.85 62.47 261.10 68.59
  Z
  M 80.28 147.63
  Q 73.86 144.56 67.07 146.88
  Q 62.17 148.57 59.79 151.85
  Q 56.57 156.27 59.71 161.79
  Q 59.79 161.93 62.07 164.49
  Q 64.39 167.10 60.80 170.17
  Q 60.08 170.79 61.03 170.75
  Q 64.99 170.57 67.68 167.94
  C 67.95 167.68 68.33 167.56 68.71 167.62
  Q 76.58 168.93 82.37 165.27
  Q 85.42 163.34 86.75 160.43
  Q 88.42 156.79 86.77 153.44
  Q 85.04 149.91 80.28 147.63
  Z
  M 210.13 155.43
  C 210.13 153.88 208.87 152.62 207.32 152.62
  C 205.77 152.62 204.51 153.88 204.51 155.43
  C 204.51 156.98 205.77 158.24 207.32 158.24
  C 208.87 158.24 210.13 156.98 210.13 155.43
  Z
  M 241.22 155.42
  C 241.22 153.86 239.96 152.60 238.40 152.60
  C 236.84 152.60 235.58 153.86 235.58 155.42
  C 235.58 156.98 236.84 158.24 238.40 158.24
  C 239.96 158.24 241.22 156.98 241.22 155.42
  Z
  M 156.25 153.74
  C 156.25 153.33 155.92 153.00 155.51 153.00
  L 151.73 153.00
  C 151.32 153.00 150.99 153.33 150.99 153.74
  L 150.99 179.00
  C 150.99 179.41 151.32 179.74 151.73 179.74
  L 155.51 179.74
  C 155.92 179.74 156.25 179.41 156.25 179.00
  L 156.25 153.74
  Z
  M 166.81 167.70
  L 166.75 153.73
  C 166.75 153.33 166.44 153.01 166.06 153.01
  L 162.06 153.04
  C 161.78 153.04 161.56 153.27 161.56 153.56
  L 161.56 179.19
  C 161.56 179.48 161.79 179.71 162.07 179.72
  L 165.49 179.75
  C 166.28 179.76 166.91 179.03 166.83 178.18
  Q 166.56 175.10 168.31 173.99
  C 168.55 173.84 168.88 173.90 169.07 174.13
  L 173.18 179.11
  C 173.43 179.41 173.74 179.59 174.00 179.59
  L 179.26 179.59
  Q 179.82 179.59 179.45 179.11
  L 172.18 169.77
  C 172.05 169.59 172.05 169.35 172.20 169.17
  L 179.20 161.08
  Q 179.62 160.59 178.99 160.60
  L 173.68 160.62
  C 173.42 160.62 173.13 160.79 172.88 161.08
  L 167.15 167.83
  Q 166.81 168.22 166.81 167.70
  Z
  M 118.30 164.91
  Q 122.58 165.62 121.35 160.63
  C 121.23 160.14 120.73 159.83 120.24 159.95
  Q 117.09 160.66 117.89 157.14
  Q 118.44 154.69 116.29 154.69
  L 113.94 154.70
  Q 111.81 154.70 112.36 157.11
  Q 113.09 160.34 110.74 160.08
  C 110.45 160.05 110.19 160.22 110.14 160.48
  Q 109.74 162.38 110.14 164.27
  C 110.19 164.53 110.45 164.69 110.73 164.64
  Q 112.84 164.28 112.62 166.15
  Q 112.48 167.26 112.48 167.36
  Q 112.34 172.42 112.72 177.14
  Q 112.88 179.13 114.80 179.68
  Q 117.47 180.46 120.89 180.20
  C 121.23 180.18 121.50 179.89 121.50 179.55
  L 121.50 176.51
  C 121.50 176.02 121.07 175.65 120.58 175.71
  Q 119.02 175.91 118.30 175.12
  Q 117.82 174.59 117.78 173.13
  Q 117.68 169.22 117.80 165.32
  C 117.81 165.06 118.04 164.87 118.30 164.91
  Z
  M 50.34 169.13
  L 52.09 167.29
  C 52.31 167.06 52.42 166.74 52.38 166.44
  Q 52.00 163.39 50.40 159.75
  Q 49.66 158.08 47.91 158.57
  Q 45.36 159.27 44.03 160.88
  Q 42.86 162.30 43.36 164.86
  Q 47.19 184.13 67.19 186.63
  C 67.53 186.67 67.86 186.61 68.13 186.45
  Q 70.63 184.95 70.89 180.82
  C 70.92 180.32 70.65 179.88 70.24 179.74
  L 63.55 177.42
  C 63.30 177.33 62.97 177.42 62.68 177.64
  L 60.66 179.21
  C 60.42 179.39 60.09 179.43 59.80 179.29
  Q 53.46 176.21 50.23 169.95
  C 50.09 169.68 50.13 169.35 50.34 169.13
  Z
  M 140.43 179.06
  Q 140.53 179.66 141.25 179.68
  Q 143.25 179.75 144.90 179.75
  C 145.37 179.75 145.75 179.37 145.75 178.90
  Q 145.75 170.93 145.75 163.54
  Q 145.75 163.43 145.88 161.98
  Q 146.04 160.14 144.39 160.11
  Q 142.84 160.08 142.11 160.20
  Q 141.06 160.37 139.97 161.34
  C 139.82 161.48 139.59 161.50 139.42 161.39
  Q 135.97 159.17 131.68 160.40
  Q 126.31 161.94 125.15 167.43
  Q 123.79 173.92 127.97 177.66
  Q 130.38 179.82 133.65 180.07
  Q 136.89 180.32 139.99 178.79
  C 140.17 178.70 140.39 178.84 140.43 179.06
  Z
  M 222.02 175.66
  L 217.21 173.94
  C 216.92 173.83 216.60 173.92 216.44 174.15
  L 214.66 176.73
  C 214.42 177.08 214.54 177.56 214.91 177.79
  Q 220.14 181.03 226.16 179.79
  Q 229.76 179.05 230.81 176.06
  Q 232.16 172.25 229.68 170.00
  Q 228.53 168.97 225.51 168.23
  Q 223.27 167.69 221.06 167.04
  Q 219.55 166.60 220.15 165.59
  Q 220.46 165.05 221.22 164.88
  Q 224.03 164.23 226.94 165.91
  C 227.47 166.22 228.13 166.11 228.45 165.66
  L 230.19 163.25
  C 230.35 163.02 230.28 162.70 230.03 162.52
  Q 224.96 158.93 219.23 160.61
  Q 216.98 161.27 215.77 162.66
  Q 214.17 164.50 214.67 166.84
  Q 215.20 169.35 217.85 170.87
  Q 220.23 172.22 223.08 172.45
  Q 224.38 172.56 224.89 172.73
  Q 227.03 173.45 225.33 174.96
  Q 223.81 176.31 222.02 175.66
  Z
  M 266.4794 170.0203
  C 266.42 164.48 261.68 160.03 255.8949 160.0906
  C 250.11 160.15 245.46 164.70 245.5206 170.2397
  C 245.58 175.78 250.32 180.23 256.1051 180.1694
  C 261.89 180.11 266.54 175.56 266.4794 170.0203
  Z
  M 276.34 161.18
  Q 276.30 160.84 276.12 160.59
  C 275.97 160.38 275.64 160.25 275.25 160.25
  L 271.67 160.25
  C 271.30 160.25 271.00 160.55 271.00 160.91
  L 271.06 178.95
  C 271.06 179.24 271.26 179.50 271.55 179.57
  Q 273.52 180.05 275.52 179.62
  C 275.81 179.55 276.02 179.31 276.05 179.01
  Q 276.54 174.27 276.25 171.50
  Q 276.00 169.16 276.58 167.30
  Q 277.25 165.13 279.29 164.53
  Q 281.34 163.93 282.68 165.60
  Q 283.49 166.62 283.59 168.63
  Q 283.86 173.77 283.82 178.93
  C 283.81 179.29 284.03 179.58 284.30 179.58
  L 288.37 179.56
  C 288.70 179.55 288.97 179.25 288.98 178.87
  Q 289.13 173.01 288.88 167.75
  Q 288.74 164.79 287.96 163.41
  Q 286.76 161.27 284.25 160.50
  Q 280.37 159.31 276.73 161.43
  C 276.57 161.53 276.36 161.39 276.34 161.18
  Z
  M 210.01 160.68
  C 210.01 160.44 209.82 160.25 209.58 160.25
  L 205.18 160.25
  C 204.94 160.25 204.75 160.44 204.75 160.68
  L 204.75 179.32
  C 204.75 179.56 204.94 179.75 205.18 179.75
  L 209.58 179.75
  C 209.82 179.75 210.01 179.56 210.01 179.32
  L 210.01 160.68
  Z
  M 241.01 160.68
  C 241.01 160.44 240.82 160.25 240.58 160.25
  L 236.18 160.25
  C 235.94 160.25 235.75 160.44 235.75 160.68
  L 235.75 179.32
  C 235.75 179.56 235.94 179.75 236.18 179.75
  L 240.58 179.75
  C 240.82 179.75 241.01 179.56 241.01 179.32
  L 241.01 160.68
  Z
  M 191.71 168.90
  Q 191.18 170.01 190.64 168.87
  L 186.91 161.00
  C 186.78 160.72 186.50 160.54 186.19 160.54
  L 181.97 160.51
  C 181.47 160.51 181.15 161.04 181.38 161.50
  L 190.77 179.80
  Q 191.25 180.72 191.73 179.79
  L 201.28 161.20
  C 201.44 160.88 201.22 160.50 200.86 160.50
  L 196.20 160.50
  C 195.89 160.50 195.60 160.68 195.47 160.97
  L 191.71 168.90
  Z"
/>
<path fill="#ffffff" d="
  M 86.77 153.44
  Q 88.42 156.79 86.75 160.43
  Q 85.42 163.34 82.37 165.27
  Q 76.58 168.93 68.71 167.62
  C 68.33 167.56 67.95 167.68 67.68 167.94
  Q 64.99 170.57 61.03 170.75
  Q 60.08 170.79 60.80 170.17
  Q 64.39 167.10 62.07 164.49
  Q 59.79 161.93 59.71 161.79
  Q 56.57 156.27 59.79 151.85
  Q 62.17 148.57 67.07 146.88
  Q 73.86 144.56 80.28 147.63
  Q 85.04 149.91 86.77 153.44
  Z
  M 68.76 156.79
  C 68.76 155.74 67.91 154.89 66.86 154.89
  C 65.81 154.89 64.96 155.74 64.96 156.79
  C 64.96 157.84 65.81 158.69 66.86 158.69
  C 67.91 158.69 68.76 157.84 68.76 156.79
  Z
  M 74.69 156.78
  C 74.69 155.75 73.85 154.91 72.82 154.91
  C 71.79 154.91 70.95 155.75 70.95 156.78
  C 70.95 157.81 71.79 158.65 72.82 158.65
  C 73.85 158.65 74.69 157.81 74.69 156.78
  Z
  M 80.67 156.78
  C 80.67 155.75 79.83 154.91 78.80 154.91
  C 77.77 154.91 76.93 155.75 76.93 156.78
  C 76.93 157.81 77.77 158.65 78.80 158.65
  C 79.83 158.65 80.67 157.81 80.67 156.78
  Z"
/>
<circle fill="#ffffff" cx="207.32" cy="155.43" r="2.81"/>
<circle fill="#ffffff" cx="238.40" cy="155.42" r="2.82"/>
<rect fill="#ffffff" x="150.99" y="153.00" width="5.26" height="26.74" rx="0.74"/>
<path fill="#ffffff" d="
  M 167.15 167.83
  L 172.88 161.08
  C 173.13 160.79 173.42 160.62 173.68 160.62
  L 178.99 160.60
  Q 179.62 160.59 179.20 161.08
  L 172.20 169.17
  C 172.05 169.35 172.05 169.59 172.18 169.77
  L 179.45 179.11
  Q 179.82 179.59 179.26 179.59
  L 174.00 179.59
  C 173.74 179.59 173.43 179.41 173.18 179.11
  L 169.07 174.13
  C 168.88 173.90 168.55 173.84 168.31 173.99
  Q 166.56 175.10 166.83 178.18
  C 166.91 179.03 166.28 179.76 165.49 179.75
  L 162.07 179.72
  C 161.79 179.71 161.56 179.48 161.56 179.19
  L 161.56 153.56
  C 161.56 153.27 161.78 153.04 162.06 153.04
  L 166.06 153.01
  C 166.44 153.01 166.75 153.33 166.75 153.73
  L 166.81 167.70
  Q 166.81 168.22 167.15 167.83
  Z"
/>
<path fill="#ffffff" d="
  M 117.80 165.32
  Q 117.68 169.22 117.78 173.13
  Q 117.82 174.59 118.30 175.12
  Q 119.02 175.91 120.58 175.71
  C 121.07 175.65 121.50 176.02 121.50 176.51
  L 121.50 179.55
  C 121.50 179.89 121.23 180.18 120.89 180.20
  Q 117.47 180.46 114.80 179.68
  Q 112.88 179.13 112.72 177.14
  Q 112.34 172.42 112.48 167.36
  Q 112.48 167.26 112.62 166.15
  Q 112.84 164.28 110.73 164.64
  C 110.45 164.69 110.19 164.53 110.14 164.27
  Q 109.74 162.38 110.14 160.48
  C 110.19 160.22 110.45 160.05 110.74 160.08
  Q 113.09 160.34 112.36 157.11
  Q 111.81 154.70 113.94 154.70
  L 116.29 154.69
  Q 118.44 154.69 117.89 157.14
  Q 117.09 160.66 120.24 159.95
  C 120.73 159.83 121.23 160.14 121.35 160.63
  Q 122.58 165.62 118.30 164.91
  C 118.04 164.87 117.81 165.06 117.80 165.32
  Z"
/>
<circle fill="#7098da" cx="66.86" cy="156.79" r="1.90"/>
<circle fill="#7098da" cx="72.82" cy="156.78" r="1.87"/>
<circle fill="#7098da" cx="78.80" cy="156.78" r="1.87"/>
<path fill="#ffffff" d="
  M 50.23 169.95
  Q 53.46 176.21 59.80 179.29
  C 60.09 179.43 60.42 179.39 60.66 179.21
  L 62.68 177.64
  C 62.97 177.42 63.30 177.33 63.55 177.42
  L 70.24 179.74
  C 70.65 179.88 70.92 180.32 70.89 180.82
  Q 70.63 184.95 68.13 186.45
  C 67.86 186.61 67.53 186.67 67.19 186.63
  Q 47.19 184.13 43.36 164.86
  Q 42.86 162.30 44.03 160.88
  Q 45.36 159.27 47.91 158.57
  Q 49.66 158.08 50.40 159.75
  Q 52.00 163.39 52.38 166.44
  C 52.42 166.74 52.31 167.06 52.09 167.29
  L 50.34 169.13
  C 50.13 169.35 50.09 169.68 50.23 169.95
  Z"
/>
<path fill="#ffffff" d="
  M 139.99 178.79
  Q 136.89 180.32 133.65 180.07
  Q 130.38 179.82 127.97 177.66
  Q 123.79 173.92 125.15 167.43
  Q 126.31 161.94 131.68 160.40
  Q 135.97 159.17 139.42 161.39
  C 139.59 161.50 139.82 161.48 139.97 161.34
  Q 141.06 160.37 142.11 160.20
  Q 142.84 160.08 144.39 160.11
  Q 146.04 160.14 145.88 161.98
  Q 145.75 163.43 145.75 163.54
  Q 145.75 170.93 145.75 178.90
  C 145.75 179.37 145.37 179.75 144.90 179.75
  Q 143.25 179.75 141.25 179.68
  Q 140.53 179.66 140.43 179.06
  C 140.39 178.84 140.17 178.70 139.99 178.79
  Z
  M 140.69 170.07
  C 140.69 167.10 138.29 164.70 135.32 164.70
  C 132.35 164.70 129.95 167.10 129.95 170.07
  C 129.95 173.04 132.35 175.44 135.32 175.44
  C 138.29 175.44 140.69 173.04 140.69 170.07
  Z"
/>
<path fill="#ffffff" d="
  M 222.02 175.66
  Q 223.81 176.31 225.33 174.96
  Q 227.03 173.45 224.89 172.73
  Q 224.38 172.56 223.08 172.45
  Q 220.23 172.22 217.85 170.87
  Q 215.20 169.35 214.67 166.84
  Q 214.17 164.50 215.77 162.66
  Q 216.98 161.27 219.23 160.61
  Q 224.96 158.93 230.03 162.52
  C 230.28 162.70 230.35 163.02 230.19 163.25
  L 228.45 165.66
  C 228.13 166.11 227.47 166.22 226.94 165.91
  Q 224.03 164.23 221.22 164.88
  Q 220.46 165.05 220.15 165.59
  Q 219.55 166.60 221.06 167.04
  Q 223.27 167.69 225.51 168.23
  Q 228.53 168.97 229.68 170.00
  Q 232.16 172.25 230.81 176.06
  Q 229.76 179.05 226.16 179.79
  Q 220.14 181.03 214.91 177.79
  C 214.54 177.56 214.42 177.08 214.66 176.73
  L 216.44 174.15
  C 216.60 173.92 216.92 173.83 217.21 173.94
  L 222.02 175.66
  Z"
/>
<path fill="#ffffff" d="
  M 266.4794 170.0203
  C 266.54 175.56 261.89 180.11 256.1051 180.1694
  C 250.32 180.23 245.58 175.78 245.5206 170.2397
  C 245.46 164.70 250.11 160.15 255.8949 160.0906
  C 261.68 160.03 266.42 164.48 266.4794 170.0203
  Z
  M 261.35 170.15
  C 261.35 167.19 258.95 164.79 255.99 164.79
  C 253.03 164.79 250.63 167.19 250.63 170.15
  C 250.63 173.11 253.03 175.51 255.99 175.51
  C 258.95 175.51 261.35 173.11 261.35 170.15
  Z"
/>
<path fill="#ffffff" d="
  M 276.73 161.43
  Q 280.37 159.31 284.25 160.50
  Q 286.76 161.27 287.96 163.41
  Q 288.74 164.79 288.88 167.75
  Q 289.13 173.01 288.98 178.87
  C 288.97 179.25 288.70 179.55 288.37 179.56
  L 284.30 179.58
  C 284.03 179.58 283.81 179.29 283.82 178.93
  Q 283.86 173.77 283.59 168.63
  Q 283.49 166.62 282.68 165.60
  Q 281.34 163.93 279.29 164.53
  Q 277.25 165.13 276.58 167.30
  Q 276.00 169.16 276.25 171.50
  Q 276.54 174.27 276.05 179.01
  C 276.02 179.31 275.81 179.55 275.52 179.62
  Q 273.52 180.05 271.55 179.57
  C 271.26 179.50 271.06 179.24 271.06 178.95
  L 271.00 160.91
  C 271.00 160.55 271.30 160.25 271.67 160.25
  L 275.25 160.25
  C 275.64 160.25 275.97 160.38 276.12 160.59
  Q 276.30 160.84 276.34 161.18
  C 276.36 161.39 276.57 161.53 276.73 161.43
  Z"
/>
<rect fill="#ffffff" x="204.75" y="160.25" width="5.26" height="19.50" rx="0.43"/>
<rect fill="#ffffff" x="235.75" y="160.25" width="5.26" height="19.50" rx="0.43"/>
<path fill="#ffffff" d="
  M 191.71 168.90
  L 195.47 160.97
  C 195.60 160.68 195.89 160.50 196.20 160.50
  L 200.86 160.50
  C 201.22 160.50 201.44 160.88 201.28 161.20
  L 191.73 179.79
  Q 191.25 180.72 190.77 179.80
  L 181.38 161.50
  C 181.15 161.04 181.47 160.51 181.97 160.51
  L 186.19 160.54
  C 186.50 160.54 186.78 160.72 186.91 161.00
  L 190.64 168.87
  Q 191.18 170.01 191.71 168.90
  Z"
/>
<circle fill="#7098da" cx="135.32" cy="170.07" r="5.37"/>
<circle fill="#7098da" cx="255.99" cy="170.15" r="5.36"/>
</svg>
